<?xml version="1.0" standalone="no"?>
<!DOCTYPE svg PUBLIC "-//W3C//DTD SVG 20010904//EN"
 "http://www.w3.org/TR/2001/REC-SVG-20010904/DTD/svg10.dtd">
<svg version="1.0" xmlns="http://www.w3.org/2000/svg"
 width="600.000000pt" height="600.000000pt" viewBox="0 0 600.000000 600.000000"
 preserveAspectRatio="xMidYMid meet">

<g transform="translate(0.000000,600.000000) scale(0.100000,-0.100000)"
fill="#000000" stroke="none">
<path d="M2855 5991 c-16 -4 -39 -12 -50 -18 -11 -5 -36 -10 -55 -11 -19 -2
-50 -7 -69 -13 -19 -7 -50 -13 -70 -14 -48 -3 -91 -21 -91 -39 0 -8 -12 -19
-27 -25 -38 -16 -87 -44 -91 -53 -2 -5 -35 -8 -73 -8 -38 0 -69 -4 -69 -9 0
-13 -39 -21 -46 -9 -4 7 -10 4 -16 -6 -6 -10 -22 -16 -43 -16 -59 0 -165 -62
-165 -96 0 -7 -20 -23 -45 -35 -33 -17 -51 -34 -67 -66 -12 -24 -25 -43 -29
-43 -4 0 -16 -13 -26 -30 -9 -16 -21 -30 -25 -30 -13 0 -42 -33 -55 -63 -7
-15 -17 -27 -23 -27 -5 0 -10 -7 -10 -16 0 -9 -9 -28 -20 -44 -11 -15 -24 -39
-30 -54 -5 -14 -16 -26 -25 -26 -8 0 -15 -9 -15 -20 0 -11 -7 -23 -15 -26 -8
-4 -15 -17 -15 -30 0 -15 -6 -24 -15 -24 -11 0 -14 -7 -9 -24 4 -18 -2 -31
-30 -58 -20 -19 -37 -43 -39 -54 -2 -10 -9 -32 -16 -47 -6 -16 -9 -33 -6 -38
4 -5 -5 -24 -19 -42 -15 -19 -26 -39 -26 -44 0 -19 -29 -23 -33 -5 -4 16 -5
15 -6 0 0 -10 -8 -18 -17 -18 -8 0 -13 -4 -9 -9 3 -5 -4 -12 -15 -16 -23 -7
-25 -18 -7 -37 16 -18 37 -55 37 -66 0 -5 -10 -18 -21 -31 -17 -18 -19 -27
-11 -45 12 -26 -3 -60 -21 -49 -7 4 -4 -6 7 -21 11 -17 14 -31 8 -35 -5 -3 -9
-53 -8 -111 1 -97 0 -105 -18 -102 -11 2 -17 -1 -14 -10 3 -7 10 -14 16 -14
26 -3 26 -5 4 -23 -14 -12 -18 -21 -10 -23 7 -3 12 -21 11 -44 -1 -21 3 -44 8
-50 5 -6 7 -20 4 -32 -2 -12 0 -24 6 -27 5 -4 9 -15 9 -25 0 -13 5 -17 14 -14
11 4 14 -1 13 -23 -2 -15 3 -39 10 -53 7 -14 10 -40 7 -61 -5 -28 -2 -38 10
-42 19 -8 21 -38 4 -55 -10 -10 -10 -15 1 -21 7 -5 10 -14 7 -20 -4 -6 -1 -11
8 -11 9 0 14 -8 13 -20 -1 -11 -4 -20 -8 -20 -11 0 -17 -50 -7 -56 5 -3 4 -12
-3 -20 -9 -11 -9 -14 1 -14 8 0 11 -3 8 -6 -4 -3 -2 -20 3 -37 6 -18 12 -43
15 -57 2 -14 6 -30 9 -37 2 -6 -13 -31 -34 -55 -42 -47 -37 -26 -68 -289 -5
-41 0 -56 41 -135 l46 -89 6 -137 c3 -76 2 -143 -2 -150 -11 -18 -12 -48 -2
-54 4 -3 8 -14 8 -24 0 -10 6 -20 13 -23 10 -4 10 -7 -1 -18 -15 -16 -16 -29
-1 -29 5 0 7 6 3 13 -5 9 -4 9 5 1 9 -8 9 -18 1 -39 -8 -22 -8 -30 2 -37 7 -4
10 -8 7 -8 -4 0 -1 -19 5 -42 10 -34 10 -47 0 -67 -7 -14 -11 -28 -7 -31 3 -3
8 1 10 8 7 18 22 15 21 -5 0 -22 16 -153 22 -178 7 -29 -1 -54 -15 -49 -9 4
-15 0 -15 -8 0 -8 -12 -20 -26 -27 -22 -10 -25 -17 -22 -43 5 -34 -16 -98 -32
-98 -6 0 -10 6 -10 13 -1 7 -6 5 -14 -6 -7 -9 -11 -28 -8 -42 2 -15 0 -25 -7
-25 -6 0 -11 14 -11 30 0 51 -38 28 -44 -27 -2 -18 -10 -29 -22 -32 -16 -3
-17 -1 -5 13 8 9 11 19 8 23 -9 8 -38 -17 -32 -27 4 -7 -37 -40 -50 -40 -11 0
-5 29 8 33 7 4 8 6 1 6 -19 2 -37 -28 -37 -60 0 -16 -5 -29 -11 -29 -6 0 -4
-5 4 -10 10 -7 11 -10 2 -10 -9 0 -11 -12 -9 -37 6 -54 1 -60 -61 -79 -61 -17
-237 -97 -262 -119 -8 -7 -33 -15 -55 -18 -59 -8 -184 -44 -200 -57 -8 -7 -15
-18 -15 -24 0 -7 -40 -22 -92 -35 -51 -13 -102 -27 -113 -31 -28 -12 -348 -90
-368 -90 -16 0 -17 -45 -17 -590 l0 -590 3000 0 3000 0 0 233 0 233 -147 74
c-113 56 -159 85 -193 121 -25 26 -58 51 -75 55 -16 3 -55 22 -86 40 -31 19
-63 34 -71 34 -36 0 -224 113 -268 160 -20 21 -49 42 -65 46 -19 5 -69 47
-140 120 -170 173 -343 274 -631 368 -59 19 -64 28 -64 126 0 48 5 74 21 99
23 38 79 178 79 198 0 8 11 31 25 53 14 22 25 49 25 60 0 12 3 19 8 17 4 -3 8
13 10 34 1 22 9 60 18 84 8 24 17 66 19 92 3 26 9 71 14 98 27 138 54 487 44
552 -3 18 4 56 16 92 17 48 19 74 15 138 -3 43 -1 105 4 137 8 51 7 65 -11
105 -13 31 -16 46 -8 49 15 5 14 21 -4 38 -16 17 -20 34 -7 34 5 0 7 14 4 30
-3 21 0 30 8 28 7 -2 17 10 22 25 8 23 7 31 -8 42 -17 13 -17 14 -2 15 22 0
33 37 17 56 -9 11 -8 18 5 33 14 16 15 23 6 41 -8 15 -8 25 -1 34 6 7 8 16 4
19 -3 4 -1 7 5 7 10 0 28 55 24 73 -1 4 3 7 8 7 16 0 30 44 16 52 -8 6 -7 8 2
8 6 0 12 8 12 18 0 10 6 27 14 38 9 12 11 23 5 30 -6 8 -5 14 5 17 12 5 11 12
-5 44 -17 34 -18 39 -4 49 8 6 15 16 15 23 0 6 5 11 10 11 16 0 12 30 -8 55
-14 18 -18 38 -16 91 2 48 -2 74 -12 85 -7 8 -17 30 -20 49 -7 30 -5 33 14 28
27 -7 28 2 3 24 -16 13 -19 26 -15 65 8 76 5 100 -15 135 -17 30 -26 82 -22
131 0 9 8 17 16 17 22 0 2 37 -25 45 -11 3 -20 13 -20 21 0 8 5 12 10 9 6 -3
10 1 10 10 0 9 -5 13 -10 10 -6 -3 -13 2 -17 12 -4 10 -10 20 -13 23 -10 7
-30 71 -26 79 3 4 -17 30 -43 59 -26 29 -46 52 -43 52 3 0 -14 14 -36 30 -23
17 -42 34 -42 38 0 17 -61 74 -75 68 -10 -4 -17 6 -25 33 -6 25 -19 42 -37 52
-15 8 -37 23 -48 35 -11 11 -28 23 -37 27 -10 3 -18 12 -18 20 0 7 -20 27 -45
45 -26 18 -45 40 -45 50 0 27 -42 62 -73 62 -17 0 -27 5 -27 15 0 8 -6 15 -14
15 -15 0 -26 21 -26 51 0 12 -5 16 -15 13 -8 -4 -17 1 -21 10 -3 9 -12 16 -19
16 -7 0 -15 9 -18 19 -3 15 -11 18 -27 14 -15 -4 -30 3 -53 25 -18 17 -45 34
-62 37 -42 10 -85 28 -85 37 0 14 -66 35 -97 31 -21 -4 -42 3 -69 20 -22 14
-61 31 -87 38 -44 11 -52 10 -88 -10 -22 -12 -50 -21 -63 -19 -20 2 -40 -5
-118 -44 -11 -5 -18 -4 -18 2 0 5 -6 10 -14 10 -8 0 -21 6 -28 14 -13 13 -41
25 -63 27 -5 0 -14 7 -18 15 -9 15 -25 16 -72 5z m382 -1227 c-4 -4 1 -14 11
-23 9 -9 17 -22 17 -30 0 -22 38 -22 62 1 19 17 25 19 38 8 8 -7 15 -19 15
-26 0 -8 10 -14 23 -14 19 1 20 2 5 11 -17 10 -14 39 4 39 5 0 6 -4 3 -10 -3
-5 -1 -10 4 -10 19 0 56 -44 53 -62 -4 -21 9 -23 26 -6 19 19 41 18 39 -3 -1
-10 -3 -16 -6 -14 -6 7 -31 -15 -31 -27 0 -6 7 -8 14 -5 10 4 13 1 9 -9 -3 -7
-10 -14 -17 -14 -6 0 -3 -5 7 -11 25 -14 22 -38 -4 -32 -19 5 -20 4 -7 -16 11
-18 11 -23 -1 -30 -12 -8 -12 -11 1 -25 9 -8 18 -13 20 -10 3 2 11 -3 19 -12
11 -14 11 -18 -4 -29 -12 -8 -14 -15 -8 -20 6 -3 18 1 27 9 20 21 19 21 22
-13 2 -30 -12 -49 -22 -32 -7 10 -46 3 -46 -9 0 -4 11 -11 25 -14 14 -4 25
-11 25 -16 0 -19 21 -10 30 13 7 16 8 5 4 -36 -6 -49 -4 -60 12 -72 11 -8 31
-11 47 -8 16 3 27 1 27 -6 0 -6 -7 -11 -15 -11 -8 0 -15 -4 -15 -10 0 -5 7
-10 16 -10 13 0 15 -6 9 -27 l-6 -27 18 23 19 23 15 -23 c28 -43 27 -53 -7
-86 -25 -25 -34 -29 -38 -17 -3 9 -1 12 4 9 12 -7 13 5 2 23 -5 7 -16 10 -25
6 -19 -7 -22 -20 -7 -29 15 -9 2 -25 -15 -18 -9 3 -15 -1 -15 -11 0 -18 -82
-44 -88 -28 -2 6 -12 2 -23 -9 -15 -15 -28 -19 -45 -15 -13 4 -33 2 -44 -4
-11 -5 -29 -15 -40 -20 -12 -6 -25 -8 -30 -5 -5 3 -19 0 -32 -6 -50 -26 -59
-29 -95 -29 -28 0 -34 -3 -23 -10 8 -5 11 -10 5 -11 -35 -4 -52 -3 -69 5 -16
7 -18 5 -12 -9 5 -15 1 -14 -30 4 -34 20 -36 21 -41 3 -5 -22 -44 -23 -81 -3
-13 7 -35 10 -49 6 -14 -3 -31 -1 -39 6 -8 7 -14 7 -14 1 0 -5 -7 -12 -14 -15
-9 -4 -13 -1 -10 7 3 8 -10 17 -33 24 -21 6 -39 8 -41 3 -4 -13 -52 37 -52 54
0 21 -20 19 -21 -2 -1 -17 -2 -17 -6 0 -3 10 -14 17 -28 17 -13 0 -26 6 -29
13 -5 10 -7 10 -12 0 -3 -7 -12 -13 -19 -13 -7 0 -16 6 -19 13 -5 10 -7 10
-12 0 -7 -15 -24 -17 -24 -3 0 5 12 13 28 17 27 7 27 7 3 13 -13 3 -28 16 -33
29 -6 19 -5 22 7 17 8 -3 15 -1 15 4 0 6 -5 10 -12 10 -6 0 -3 7 8 16 14 12
15 14 3 11 -12 -4 -15 -1 -12 13 3 12 11 16 21 13 13 -5 14 0 9 30 -5 35 8 61
22 40 8 -13 41 -12 41 1 0 6 7 2 16 -9 13 -17 16 -18 25 -5 8 12 12 12 16 2 4
-9 8 -10 18 -2 9 8 15 8 20 0 3 -5 10 -10 15 -10 13 0 40 59 33 76 -3 7 0 14
6 14 6 0 11 -9 11 -20 0 -14 7 -20 23 -20 18 0 19 2 7 10 -12 8 -10 10 9 8 32
-4 37 16 9 30 l-23 11 22 0 c12 1 26 -7 32 -16 5 -10 13 -14 17 -10 5 5 4 11
-2 15 -6 4 -14 17 -18 28 -4 12 -16 24 -27 27 -12 3 -18 10 -15 16 4 6 13 8
21 4 8 -3 15 0 15 6 0 6 -7 11 -15 11 -8 0 -15 6 -15 13 0 7 -10 17 -22 22
-26 12 -40 42 -14 32 9 -4 22 -9 29 -12 10 -4 13 2 9 23 -3 20 1 31 12 35 9 4
16 2 16 -3 0 -6 6 -10 14 -10 14 0 26 27 30 67 1 19 -2 22 -19 17 -27 -9 -33
-16 -18 -21 10 -4 9 -8 -1 -19 -17 -16 -46 -19 -46 -4 0 6 6 10 14 10 10 0 12
11 8 45 -3 32 -1 45 8 45 8 0 11 -9 8 -25 -5 -25 5 -34 17 -15 3 5 13 6 22 3
11 -4 14 -3 9 5 -4 7 -14 12 -22 12 -8 0 -14 6 -14 13 0 32 -26 67 -57 74
l-32 8 20 25 c10 14 17 18 14 9 -5 -12 1 -18 19 -23 17 -4 26 -13 26 -26 0
-12 7 -20 16 -20 13 0 14 3 5 13 -8 10 -5 18 12 33 30 26 55 36 62 24 4 -6 -4
-10 -17 -11 -13 0 -17 -3 -10 -6 6 -2 12 -12 12 -21 0 -15 2 -15 10 -2 8 12
10 12 10 -5 1 -18 2 -18 11 3 5 13 6 34 3 46 -5 21 -2 23 33 22 21 -1 55 1 76
5 20 4 40 3 42 -1 5 -9 65 -19 65 -12 0 3 -8 11 -17 18 -16 12 -14 13 16 14
19 0 31 -3 28 -6z m-283 -13 c3 -5 -1 -11 -9 -15 -15 -6 -29 7 -18 18 9 9 21
8 27 -3z m-149 -31 c-3 -5 -14 -10 -23 -9 -14 0 -13 2 3 9 27 11 27 11 20 0z
m502 -6 c-3 -3 -12 -4 -19 -1 -8 3 -5 6 6 6 11 1 17 -2 13 -5z m327 -159 c8
-8 19 -15 25 -15 15 0 14 -17 -1 -26 -6 -4 -14 -2 -16 5 -3 8 -13 22 -23 32
-11 11 -15 19 -10 19 5 0 16 -7 25 -15z m-794 -5 c0 -5 -7 -10 -16 -10 -8 0
-12 5 -9 10 3 6 10 10 16 10 5 0 9 -4 9 -10z m760 -30 c0 -16 -5 -30 -11 -30
-5 0 -7 -4 -4 -10 3 -5 1 -10 -5 -10 -7 0 -10 -6 -7 -13 4 -10 -2 -13 -18 -9
-13 2 -26 11 -29 19 -5 12 -1 14 21 8 23 -5 26 -4 16 6 -19 19 -17 50 2 43 9
-4 15 0 15 10 0 9 5 16 10 16 6 0 10 -13 10 -30z m140 -10 c0 -5 -4 -10 -10
-10 -5 0 -10 5 -10 10 0 6 5 10 10 10 6 0 10 -4 10 -10z m-927 -35 c4 -8 2
-17 -3 -20 -6 -4 -10 3 -10 14 0 25 6 27 13 6z m807 5 c0 -5 -4 -10 -10 -10
-5 0 -10 5 -10 10 0 6 5 10 10 10 6 0 10 -4 10 -10z m87 -72 c-3 -8 -6 -5 -6
6 -1 11 2 17 5 13 3 -3 4 -12 1 -19z m-24 -17 c3 -14 1 -18 -9 -14 -15 6 -18
16 -7 26 9 10 10 9 16 -12z m-1058 -101 c3 -5 1 -10 -4 -10 -6 0 -11 5 -11 10
0 6 2 10 4 10 3 0 8 -4 11 -10z m1035 1 c0 -6 -4 -13 -10 -16 -5 -3 -10 1 -10
9 0 9 5 16 10 16 6 0 10 -4 10 -9z m-5 -53 c6 -4 -5 -8 -22 -8 -18 0 -33 4
-33 10 0 5 7 7 15 4 8 -4 15 -1 15 7 0 7 3 8 8 3 4 -5 12 -12 17 -16z m65 -60
c0 -4 -7 -8 -15 -8 -10 0 -15 10 -15 28 1 26 1 26 15 8 8 -11 15 -23 15 -28z
m95 12 c3 -5 -1 -10 -9 -10 -9 0 -16 5 -16 10 0 6 4 10 9 10 6 0 13 -4 16 -10z
m25 -45 c0 -8 -4 -15 -10 -15 -5 0 -7 7 -4 15 4 8 8 15 10 15 2 0 4 -7 4 -15z
m-1299 -18 c-6 -8 -8 -17 -4 -20 3 -4 -9 -7 -28 -6 -31 1 -32 2 -9 8 14 4 24
13 23 19 -2 7 4 12 13 12 13 0 14 -3 5 -13z m-41 -87 c0 -5 -5 -10 -11 -10 -5
0 -7 5 -4 10 3 6 8 10 11 10 2 0 4 -4 4 -10z m40 -44 c0 -3 -4 -8 -10 -11 -5
-3 -10 -1 -10 4 0 6 5 11 10 11 6 0 10 -2 10 -4z m271 -119 c-10 -9 -11 -8 -5
6 3 10 9 15 12 12 3 -3 0 -11 -7 -18z m235 -199 c5 -7 3 -8 -6 -3 -9 5 -11 4
-6 -3 4 -7 16 -12 27 -12 10 0 19 -4 19 -9 0 -5 3 -16 6 -25 4 -11 0 -16 -14
-16 -12 0 -24 -4 -27 -10 -7 -12 -44 -14 -46 -2 -1 4 -3 17 -4 29 -1 13 -8 30
-16 39 -12 15 -11 16 8 10 12 -4 24 -2 28 4 8 13 22 13 31 -2z m-528 -187 c6
-1 12 -10 12 -20 0 -14 -9 -20 -37 -23 -21 -3 -39 -4 -41 -3 -1 1 2 14 7 28 7
17 16 24 28 22 10 -2 24 -4 31 -4z m1012 -31 c0 -5 -4 -10 -10 -10 -5 0 -10 5
-10 10 0 6 5 10 10 10 6 0 10 -4 10 -10z m887 -152 c-3 -8 -6 -5 -6 6 -1 11 2
17 5 13 3 -3 4 -12 1 -19z m-7 -138 c0 -5 -5 -10 -11 -10 -5 0 -7 5 -4 10 3 6
8 10 11 10 2 0 4 -4 4 -10z m-1355 -30 c7 0 15 6 18 13 8 21 20 -2 20 -38 0
-23 5 -35 14 -35 8 0 12 -4 8 -10 -3 -5 -13 -6 -22 -3 -13 5 -15 2 -10 -11 4
-10 7 -22 7 -28 0 -6 9 -8 21 -5 15 4 19 2 15 -9 -3 -9 1 -14 14 -14 22 0 27
-16 8 -23 -7 -3 -3 -6 10 -6 12 -1 22 -5 22 -9 0 -13 -36 -43 -42 -36 -4 3
-17 -2 -31 -11 -30 -19 -127 -33 -127 -17 0 6 -9 14 -20 17 -11 3 -20 12 -20
20 0 7 -5 15 -12 17 -6 2 -12 21 -14 42 -2 35 -1 36 15 22 31 -28 45 -11 15
18 -8 9 -12 16 -7 16 5 0 15 -6 22 -12 10 -11 11 -10 6 5 -4 9 -3 17 3 17 6 0
23 5 39 12 15 6 33 10 40 9 7 -1 9 7 6 19 -3 11 -9 20 -14 20 -5 0 -9 10 -8
23 0 12 3 16 6 10 2 -7 11 -13 18 -13z m-88 -16 c-3 -3 -12 -4 -19 -1 -8 3 -5
6 6 6 11 1 17 -2 13 -5z m17 -25 c8 7 21 11 28 8 8 -3 1 -9 -15 -16 -30 -12
-47 -8 -47 12 0 8 4 7 9 -2 8 -12 12 -12 25 -2z m-39 -19 c3 -5 1 -10 -4 -10
-6 0 -11 5 -11 10 0 6 2 10 4 10 3 0 8 -4 11 -10z m1470 -58 c-6 -36 -9 -42
-15 -27 -4 11 -3 22 1 23 5 2 9 10 9 18 0 8 -6 11 -15 8 -20 -8 -19 2 3 24 22
23 26 12 17 -46z m-1921 49 c15 -6 16 -10 7 -16 -11 -6 -11 -9 0 -16 11 -7 10
-9 -3 -9 -10 0 -18 -4 -18 -10 0 -15 21 -12 42 7 17 15 18 15 18 -5 0 -12 -5
-22 -11 -22 -8 0 -9 -4 0 -13 6 -8 8 -17 4 -20 -3 -4 -1 -7 5 -7 7 0 12 -8 12
-17 0 -15 2 -16 10 -3 6 9 5 17 -3 23 -8 6 -8 7 3 4 8 -2 15 -9 14 -15 -1 -7
-2 -21 -2 -32 -2 -19 -4 -20 -31 -5 -19 9 -32 11 -36 5 -3 -6 3 -10 14 -10 24
0 27 -10 9 -28 -10 -10 -10 -15 2 -22 12 -8 12 -10 1 -10 -7 0 -11 -6 -8 -15
4 -8 3 -16 -1 -19 -4 -2 -7 -42 -7 -89 1 -76 -1 -84 -17 -79 -10 2 -18 -1 -18
-7 0 -6 6 -11 13 -11 6 -1 -5 -10 -25 -21 -21 -11 -38 -25 -38 -32 -1 -6 -10
-1 -22 13 -20 24 -20 24 -14 3 4 -13 3 -23 -2 -23 -6 0 -13 12 -16 26 l-7 25
-19 -23 c-16 -19 -19 -20 -20 -6 0 30 -18 29 -36 -1 -17 -28 -38 -34 -29 -8 5
15 -14 41 -37 50 -11 4 -18 0 -20 -11 -3 -14 -6 -14 -16 5 -10 17 -9 24 3 37
17 16 21 61 5 51 -5 -3 -10 3 -10 14 0 11 5 23 11 27 8 5 6 10 -5 16 -14 8
-15 12 -4 26 12 15 11 16 -5 3 -11 -8 -15 -21 -12 -32 5 -16 1 -19 -31 -19
-36 0 -37 0 -19 20 16 18 16 20 2 20 -10 0 -17 4 -17 10 0 5 -7 7 -16 3 -9 -3
-20 0 -24 7 -7 11 -11 11 -24 1 -9 -7 -22 -11 -31 -7 -8 3 -14 2 -14 -2 3 -20
-3 -32 -16 -32 -8 0 -15 5 -15 10 0 6 4 10 9 10 5 0 12 12 15 26 5 20 10 23
20 15 10 -9 17 -4 29 21 15 31 15 34 -1 40 -14 5 -13 7 6 7 16 1 22 7 22 24 0
18 2 19 10 7 9 -13 10 -13 11 0 1 8 1 18 0 23 0 4 4 7 10 7 5 0 7 5 4 10 -3 6
-1 10 4 10 6 0 11 7 11 15 0 19 16 20 23 1 3 -8 -4 -21 -15 -28 -25 -17 -15
-42 13 -35 10 3 22 1 25 -4 3 -5 0 -9 -5 -9 -6 0 -11 -7 -11 -15 0 -8 3 -14 8
-12 4 1 8 -1 9 -6 5 -17 29 -34 41 -30 7 3 20 -1 29 -8 15 -13 15 -12 5 8 -15
28 -15 36 0 27 7 -4 8 -3 4 4 -4 7 -14 12 -22 12 -8 0 -14 7 -14 16 0 8 -4 13
-8 10 -5 -3 -16 3 -24 14 -15 16 -15 19 -1 24 19 8 38 8 30 0 -7 -8 22 -39 37
-39 17 -1 26 18 20 45 -5 22 -4 23 6 7 14 -21 30 -13 30 15 0 17 2 18 15 8 13
-11 14 -10 9 4 -3 9 -2 16 4 16 5 0 13 -10 16 -22 7 -22 7 -23 17 -3 7 15 8 7
4 -27 -3 -37 -1 -48 9 -48 13 0 25 17 22 31 0 3 7 14 17 24 13 13 15 21 7 29
-8 8 -14 7 -21 -4 -9 -12 -10 -12 -5 3 3 10 6 23 6 28 0 4 7 6 15 3 10 -4 18
3 25 20 10 27 21 30 54 17z m1670 -18 c-4 -19 -3 -24 4 -15 5 8 17 12 27 10
14 -2 13 -8 -12 -34 -23 -23 -35 -29 -50 -23 -31 11 -38 29 -15 36 13 3 18 11
15 23 -3 12 2 20 14 23 10 3 19 5 21 6 1 0 0 -11 -4 -26z m-2034 -17 c0 -3 -7
-6 -15 -6 -9 0 -15 9 -15 21 0 18 2 19 15 5 8 -8 15 -17 15 -20z m427 12 c-3
-8 -6 -5 -6 6 -1 11 2 17 5 13 3 -3 4 -12 1 -19z m1533 -33 c0 -5 -5 -3 -10 5
-5 8 -10 20 -10 25 0 6 5 3 10 -5 5 -8 10 -19 10 -25z m170 31 c0 -3 -4 -8
-10 -11 -5 -3 -10 -1 -10 4 0 6 5 11 10 11 6 0 10 -2 10 -4z m-683 -12 c-3 -3
-12 -4 -19 -1 -8 3 -5 6 6 6 11 1 17 -2 13 -5z m30 -39 c6 -14 8 -25 5 -25 -4
0 -17 -3 -30 -6 -18 -5 -21 -3 -16 10 3 9 1 16 -5 16 -6 0 -11 4 -11 9 0 8 11
14 40 20 3 0 10 -10 17 -24z m458 13 c14 -6 25 -15 25 -20 0 -5 -4 -7 -8 -4
-4 2 -8 -4 -8 -15 0 -12 7 -19 21 -20 17 0 17 -2 -5 -10 -19 -8 -27 -6 -36 5
-14 20 -24 20 -24 3 0 -8 -12 -20 -27 -27 l-28 -14 25 -4 c30 -5 40 -18 40
-53 0 -23 4 -26 25 -21 15 2 25 0 25 -7 0 -6 -5 -11 -11 -11 -5 0 -8 -4 -5 -9
3 -5 15 -7 25 -4 20 5 42 -18 23 -25 -7 -2 -12 -10 -12 -18 0 -24 -19 -16 -26
11 -3 14 -15 30 -25 36 -16 8 -19 6 -19 -11 0 -11 -7 -20 -15 -20 -9 0 -18 -6
-21 -14 -9 -24 -46 -27 -67 -5 -20 21 -42 21 -42 -1 0 -7 -9 -16 -20 -21 -11
-4 -15 -8 -10 -9 6 -1 -3 -6 -20 -11 -20 -6 -32 -5 -37 4 -6 9 -10 9 -16 0
-11 -17 -55 -4 -48 13 8 19 14 41 9 32 -3 -5 -11 -8 -19 -8 -8 0 -14 -4 -14
-9 0 -5 -9 -13 -20 -16 -11 -4 -17 -11 -14 -17 4 -6 3 -8 -3 -5 -9 6 -10 22
-4 61 0 5 8 3 16 -4 11 -10 18 -9 30 4 15 15 13 16 -20 16 -29 0 -36 3 -31 15
3 10 -1 18 -12 22 -9 4 -24 13 -32 21 -12 13 -11 14 10 8 l25 -7 -21 18 c-11
10 -20 26 -18 36 1 9 -2 19 -7 23 -14 8 -11 34 5 34 8 0 16 6 18 12 5 13 75
-33 91 -59 12 -20 27 -16 27 7 0 11 -7 20 -15 20 -20 0 -19 26 1 34 8 3 12 2
9 -4 -3 -6 -1 -10 5 -10 6 0 13 7 16 15 9 23 29 18 42 -9 10 -22 8 -26 -16
-35 -23 -10 -20 -10 21 -6 27 3 53 7 58 11 14 8 11 37 -4 31 -6 -2 -18 2 -25
9 -11 12 -9 14 11 14 12 0 28 -5 35 -12 9 -9 12 -7 12 9 0 12 5 25 12 29 7 5
8 3 3 -6 -6 -10 3 -11 41 -7 l49 6 -45 -16 c-51 -18 -62 -30 -54 -56 5 -16 2
-18 -16 -12 -17 5 -21 4 -18 -6 3 -8 15 -13 27 -12 13 2 21 -3 21 -13 0 -8 -4
-13 -9 -10 -5 4 -7 -3 -4 -14 6 -22 -7 -26 -24 -9 -6 6 -16 8 -22 4 -8 -4 -3
-13 11 -25 18 -14 26 -16 37 -7 11 10 12 6 7 -21 -6 -26 -5 -31 7 -26 8 3 18
1 22 -5 8 -14 45 -15 45 -1 0 5 -15 12 -34 15 -27 6 -33 11 -29 26 4 14 11 17
29 13 22 -6 24 -3 24 27 0 18 -3 29 -7 26 -3 -4 -12 -2 -20 4 -10 9 -10 15 -2
25 15 18 3 33 -21 27 -12 -3 -20 0 -20 8 0 7 3 9 6 6 4 -3 16 0 28 8 11 8 25
15 31 15 5 0 4 -4 -4 -9 -8 -5 -9 -11 -3 -15 6 -3 13 2 17 13 3 10 15 21 25
24 13 3 18 11 14 21 -7 19 -3 20 31 4z m-188 -4 c-3 -3 -12 -4 -19 -1 -8 3 -5
6 6 6 11 1 17 -2 13 -5z m-1677 -14 c0 -5 -4 -10 -10 -10 -5 0 -10 5 -10 10 0
6 5 10 10 10 6 0 10 -4 10 -10z m2000 0 c0 -5 -4 -10 -9 -10 -6 0 -13 5 -16
10 -3 6 1 10 9 10 9 0 16 -4 16 -10z m180 -15 c10 -12 10 -15 -4 -15 -9 0 -16
7 -16 15 0 8 2 15 4 15 2 0 9 -7 16 -15z m-181 -21 c3 -3 -76 1 -87 5 -2 1 -1
5 2 10 6 8 73 -4 85 -15z m-2164 -3 c-5 -9 -45 -22 -45 -16 0 2 7 11 16 19 15
16 39 13 29 -3z m2202 13 c-3 -3 -12 -4 -19 -1 -8 3 -5 6 6 6 11 1 17 -2 13
-5z m-36 -46 c-13 -4 -27 -5 -33 -2 -16 10 11 22 35 16 20 -5 20 -5 -2 -14z
m-60 3 c-11 -7 -10 -11 5 -19 11 -5 25 -7 32 -5 18 7 15 -8 -5 -22 -14 -10
-21 -8 -42 12 -22 20 -24 25 -11 33 8 5 20 10 25 10 6 0 4 -4 -4 -9z m309 -7
c0 -2 -14 -4 -31 -4 -16 0 -28 4 -25 9 5 8 56 3 56 -5z m-2433 -40 c-9 -9 -28
6 -21 18 4 6 10 6 17 -1 6 -6 8 -13 4 -17z m2318 16 c8 -13 -5 -13 -25 0 -13
8 -13 10 2 10 9 0 20 -4 23 -10z m-1780 -10 c-3 -5 -11 -10 -16 -10 -6 0 -7 5
-4 10 3 6 11 10 16 10 6 0 7 -4 4 -10z m1706 1 c-11 -7 -10 -11 5 -19 10 -6
15 -14 11 -18 -11 -11 -41 22 -33 35 4 6 13 11 19 11 8 0 7 -3 -2 -9z m106
-43 c-3 -8 -6 -5 -6 6 -1 11 2 17 5 13 3 -3 4 -12 1 -19z m-97 -33 c0 -2 -7
-6 -16 -9 -8 -3 -12 -2 -9 4 3 6 1 10 -4 10 -6 0 -11 10 -11 22 l0 21 20 -23
c11 -13 20 -24 20 -25z m64 6 c3 -5 -1 -11 -9 -15 -15 -6 -29 7 -18 18 9 9 21
8 27 -3z m41 -1 c3 -5 1 -10 -4 -10 -6 0 -11 5 -11 10 0 6 2 10 4 10 3 0 8 -4
11 -10z m-2275 -35 c0 -8 -4 -15 -9 -15 -5 0 -11 7 -15 15 -3 9 0 15 9 15 8 0
15 -7 15 -15z m-73 -56 c1 -11 -2 -19 -8 -19 -5 0 -9 7 -9 16 0 8 -4 13 -8 10
-4 -2 -8 4 -8 13 0 25 31 6 33 -20z m2222 32 c7 -5 10 -14 7 -20 -5 -8 -11 -7
-22 3 -24 24 -14 35 15 17z m-159 -36 c0 -8 -6 -12 -14 -9 -8 3 -12 12 -9 20
6 17 23 9 23 -11z m230 15 c0 -5 -2 -10 -4 -10 -3 0 -8 5 -11 10 -3 6 -1 10 4
10 6 0 11 -4 11 -10z m-2150 -15 c0 -8 -5 -15 -11 -15 -6 0 -8 -8 -4 -19 3
-11 1 -22 -5 -26 -6 -4 -10 7 -10 29 0 44 -27 50 -33 9 -4 -26 -4 -26 -6 5 -1
30 1 32 34 32 24 0 35 -5 35 -15z m1965 5 c3 -5 -1 -10 -9 -10 -9 0 -16 5 -16
10 0 6 4 10 9 10 6 0 13 -4 16 -10z m47 -5 c0 -5 -5 -11 -10 -13 -5 -1 -9 4
-9 13 0 9 4 14 9 13 5 -2 10 -8 10 -13z m-272 -9 c0 -8 -6 -17 -12 -19 -7 -3
-4 -6 7 -7 18 -1 18 -2 -4 -11 -16 -6 -28 -6 -37 2 -18 15 -18 29 1 29 8 0 15
5 15 10 0 6 7 10 15 10 8 0 15 -6 15 -14z m-1783 -43 c-3 -10 -5 -2 -5 17 0
19 2 27 5 18 2 -10 2 -26 0 -35z m2113 37 c0 -5 -4 -10 -10 -10 -5 0 -10 5
-10 10 0 6 5 10 10 10 6 0 10 -4 10 -10z m80 0 c0 -5 -9 -10 -21 -10 -11 0
-17 5 -14 10 3 6 13 10 21 10 8 0 14 -4 14 -10z m-170 -4 c0 -3 -4 -8 -10 -11
-5 -3 -10 -1 -10 4 0 6 5 11 10 11 6 0 10 -2 10 -4z m-150 -26 c0 -5 -4 -10
-10 -10 -5 0 -10 5 -10 10 0 6 5 10 10 10 6 0 10 -4 10 -10z m-140 -14 c0 -3
-4 -8 -10 -11 -5 -3 -10 -1 -10 4 0 6 5 11 10 11 6 0 10 -2 10 -4z m234 -11
c-4 -8 -8 -15 -10 -15 -2 0 -4 7 -4 15 0 8 4 15 10 15 5 0 7 -7 4 -15z m186
-6 c0 -11 -4 -18 -10 -14 -5 3 -7 12 -3 20 7 21 13 19 13 -6z m-451 -3 c10
-12 8 -13 -8 -9 -12 3 -21 9 -21 14 0 14 16 11 29 -5z m338 -1 c0 -8 -4 -12
-9 -9 -5 3 -6 10 -3 15 9 13 12 11 12 -6z m-1787 -75 c12 -8 11 -10 -7 -10
-13 0 -23 5 -23 10 0 13 11 13 30 0z m33 -21 c-12 -4 -24 -12 -28 -18 -8 -14
-35 -14 -35 -1 0 6 8 10 19 10 10 0 24 7 31 15 7 8 17 12 23 8 6 -4 2 -9 -10
-14z m-849 -516 c-2 -21 -3 -50 -3 -65 -1 -18 -6 -28 -16 -28 -8 0 -17 -11
-21 -25 -5 -20 -9 -23 -20 -14 -21 18 -17 53 11 79 13 12 22 27 19 31 -4 7 23
59 31 59 1 0 1 -17 -1 -37z"/>
<path d="M3180 4720 c0 -5 5 -10 10 -10 6 0 10 5 10 10 0 6 -4 10 -10 10 -5 0
-10 -4 -10 -10z"/>
<path d="M3330 4674 c0 -14 3 -14 15 -4 8 7 15 14 15 16 0 2 -7 4 -15 4 -8 0
-15 -7 -15 -16z"/>
<path d="M3435 4660 c-3 -5 -1 -10 4 -10 6 0 11 5 11 10 0 6 -2 10 -4 10 -3 0
-8 -4 -11 -10z"/>
<path d="M3411 4584 c0 -11 3 -14 6 -6 3 7 2 16 -1 19 -3 4 -6 -2 -5 -13z"/>
<path d="M3460 4580 c0 -5 5 -10 10 -10 6 0 10 5 10 10 0 6 -4 10 -10 10 -5 0
-10 -4 -10 -10z"/>
<path d="M3420 4550 c0 -5 5 -10 10 -10 6 0 10 5 10 10 0 6 -4 10 -10 10 -5 0
-10 -4 -10 -10z"/>
<path d="M3460 4550 c0 -5 4 -10 9 -10 6 0 13 5 16 10 3 6 -1 10 -9 10 -9 0
-16 -4 -16 -10z"/>
<path d="M2987 4523 c-4 -3 -7 -11 -7 -17 0 -6 5 -5 12 2 6 6 9 14 7 17 -3 3
-9 2 -12 -2z"/>
<path d="M3450 4521 c0 -6 5 -13 10 -16 6 -3 10 1 10 9 0 9 -4 16 -10 16 -5 0
-10 -4 -10 -9z"/>
<path d="M3398 4473 c7 -3 16 -2 19 1 4 3 -2 6 -13 5 -11 0 -14 -3 -6 -6z"/>
<path d="M3510 4420 c0 -5 5 -10 10 -10 6 0 10 5 10 10 0 6 -4 10 -10 10 -5 0
-10 -4 -10 -10z"/>
<path d="M3450 4350 c20 -13 43 -13 35 0 -3 6 -16 10 -28 10 -18 0 -19 -2 -7
-10z"/>
<path d="M2836 4215 c-19 -15 -19 -15 1 -15 11 0 26 7 33 15 17 20 -7 20 -34
0z"/>
<path d="M3545 4210 c3 -5 8 -10 11 -10 2 0 4 5 4 10 0 6 -5 10 -11 10 -5 0
-7 -4 -4 -10z"/>
<path d="M2788 4177 c-3 -15 -2 -27 3 -27 13 0 17 14 9 35 -6 17 -7 16 -12 -8z"/>
<path d="M2568 4043 c6 -2 18 -2 25 0 6 3 1 5 -13 5 -14 0 -19 -2 -12 -5z"/>
<path d="M3574 4015 c-16 -12 -17 -14 -3 -15 9 0 19 7 23 15 7 19 5 19 -20 0z"/>
<path d="M3008 3883 c6 -2 18 -2 25 0 6 3 1 5 -13 5 -14 0 -19 -2 -12 -5z"/>
<path d="M3065 3110 c3 -5 8 -10 11 -10 2 0 4 5 4 10 0 6 -5 10 -11 10 -5 0
-7 -4 -4 -10z"/>
<path d="M3051 3054 c0 -11 3 -14 6 -6 3 7 2 16 -1 19 -3 4 -6 -2 -5 -13z"/>
<path d="M2960 2980 c0 -5 5 -10 10 -10 6 0 10 5 10 10 0 6 -4 10 -10 10 -5 0
-10 -4 -10 -10z"/>
<path d="M2446 3012 c-3 -6 -1 -14 5 -17 15 -10 25 3 12 16 -7 7 -13 7 -17 1z"/>
<path d="M2077 2883 c-4 -3 -7 -11 -7 -17 0 -6 5 -5 12 2 6 6 9 14 7 17 -3 3
-9 2 -12 -2z"/>
<path d="M2075 2840 c-4 -6 -3 -16 3 -22 6 -6 12 -6 17 2 4 6 3 16 -3 22 -6 6
-12 6 -17 -2z"/>
<path d="M2217 2789 c7 -7 15 -10 18 -7 3 3 -2 9 -12 12 -14 6 -15 5 -6 -5z"/>
<path d="M2410 2759 c0 -5 5 -7 10 -4 6 3 10 8 10 11 0 2 -4 4 -10 4 -5 0 -10
-5 -10 -11z"/>
<path d="M2370 2701 c0 -6 5 -13 10 -16 6 -3 10 1 10 9 0 9 -4 16 -10 16 -5 0
-10 -4 -10 -9z"/>
<path d="M2347 2693 c-4 -3 -7 -13 -7 -22 1 -13 3 -13 11 2 11 19 8 33 -4 20z"/>
<path d="M2381 2654 c0 -11 3 -14 6 -6 3 7 2 16 -1 19 -3 4 -6 -2 -5 -13z"/>
<path d="M3645 2880 c-3 -5 -1 -10 4 -10 6 0 11 5 11 10 0 6 -2 10 -4 10 -3 0
-8 -4 -11 -10z"/>
<path d="M3700 2834 c0 -8 5 -12 10 -9 6 3 10 10 10 16 0 5 -4 9 -10 9 -5 0
-10 -7 -10 -16z"/>
<path d="M3848 2803 c7 -3 16 -2 19 1 4 3 -2 6 -13 5 -11 0 -14 -3 -6 -6z"/>
<path d="M4090 2780 c0 -5 5 -10 10 -10 6 0 10 5 10 10 0 6 -4 10 -10 10 -5 0
-10 -4 -10 -10z"/>
<path d="M3680 2740 c0 -5 5 -10 10 -10 6 0 10 5 10 10 0 6 -4 10 -10 10 -5 0
-10 -4 -10 -10z"/>
<path d="M1410 2269 c0 -5 5 -7 10 -4 6 3 10 8 10 11 0 2 -4 4 -10 4 -5 0 -10
-5 -10 -11z"/>
<path d="M1420 2229 c0 -5 5 -7 10 -4 6 3 10 8 10 11 0 2 -4 4 -10 4 -5 0 -10
-5 -10 -11z"/>
<path d="M1490 2178 c0 -10 -5 -18 -12 -18 -6 0 -9 -3 -5 -6 3 -3 12 -2 21 3
10 6 12 13 6 23 -8 13 -10 12 -10 -2z"/>
<path d="M1390 1994 c0 -8 5 -12 10 -9 6 4 8 11 5 16 -9 14 -15 11 -15 -7z"/>
<path d="M1330 1970 c0 -11 2 -20 5 -20 2 0 9 9 15 20 9 16 8 20 -5 20 -8 0
-15 -9 -15 -20z"/>
<path d="M1356 1935 c-3 -8 -14 -15 -25 -15 -10 0 -21 -7 -25 -15 -3 -9 0 -15
7 -15 16 0 57 37 57 50 0 15 -7 12 -14 -5z"/>
<path d="M1390 1910 c0 -5 5 -10 11 -10 5 0 7 5 4 10 -3 6 -8 10 -11 10 -2 0
-4 -4 -4 -10z"/>
<path d="M1260 1809 c0 -5 5 -7 10 -4 6 3 10 8 10 11 0 2 -4 4 -10 4 -5 0 -10
-5 -10 -11z"/>
</g>
</svg>
